<?xml version="1.0" encoding="UTF-8"?>
<svg width="100" height="100" viewBox="0 0 100 100" xmlns="http://www.w3.org/2000/svg">
  <!-- Background Circle -->
  <circle cx="50" cy="50" r="45" fill="#1e75a3"/>

  <!-- User Head -->
  <circle cx="50" cy="38" r="18" fill="white"/>
  
  <!-- User Body -->
  <path d="M25 85 C25 65 75 65 75 85" fill="white"/>
  
  <!-- Business Suit Detail -->
  <path d="M42 62 L42 85 L58 85 L58 62 Z" fill="white"/>
  <path d="M42 70 L50 77 L58 70" stroke="#1e75a3" stroke-width="2" fill="none"/>
  
  <!-- Tie -->
  <path d="M50 62 L46 70 L50 85 L54 70 L50 62 Z" fill="#e6007e"/>
  
  <!-- Collar -->
  <path d="M42 62 L50 67 L58 62" stroke="#1e75a3" stroke-width="1.5" fill="none"/>
  
  <!-- Optional Details: Can be removed if too detailed -->
  <circle cx="44" cy="35" r="2" fill="#1e75a3"/> <!-- Left Eye -->
  <circle cx="56" cy="35" r="2" fill="#1e75a3"/> <!-- Right Eye -->
  <path d="M44 45 C44 48 56 48 56 45" stroke="#1e75a3" stroke-width="1.5" fill="none"/> <!-- Smile -->
</svg>